<?xml version="1.0" encoding="utf-8"?>
<!-- Generator: Adobe Illustrator 23.0.2, SVG Export Plug-In . SVG Version: 6.00 Build 0)  -->
<svg version="1.1" id="Layer_1" xmlns="http://www.w3.org/2000/svg" xmlns:xlink="http://www.w3.org/1999/xlink" x="0px" y="0px"
	 viewBox="0 0 466 147.6" style="enable-background:new 0 0 466 147.6;" xml:space="preserve">
<style type="text/css">
	.st0{fill:#FFFFFF;}
</style>
	<g>
	<g id="_x2B_20">
		<path class="st0" d="M67.4,121.8l-1.6-2.6h-9.7l-1.6,2.6h-2.9l7.7-12.1h3.3l7.7,12.1H67.4z M60.7,111.9l-3.5,5.5h7.6l-3.5-5.5
			H60.7z"/>
		<path class="st0" d="M98.9,121.9c-2.8,0-3.6-0.4-3.6-3.4v-8.9h2.6v9.3c0,0.8,0.3,0.9,1.1,0.9h8.7c0.9,0,1.2-0.1,1.2-0.9v-9.3h2.6
			v8.9c0,2.9-0.8,3.4-3.6,3.4H98.9z"/>
		<path class="st0" d="M143.3,121.8v-10.2h-7.2v-2H153v2h-7.1v10.2H143.3z"/>
		<path class="st0" d="M181.4,121.9c-2.7,0-3.8-0.5-3.8-3.4v-5.6c0-2.8,1.1-3.4,3.8-3.4h9.5c2.7,0,3.8,0.6,3.8,3.4v5.6
			c0,2.8-1,3.4-3.8,3.4H181.4z M192.1,112.5c0-0.8-0.3-0.9-1.1-0.9h-9.6c-0.9,0-1.1,0.1-1.1,0.9v6.5c0,0.8,0.3,0.9,1.1,0.9h9.6
			c0.9,0,1.1-0.1,1.1-0.9V112.5z"/>
		<path class="st0" d="M237.3,121.8v-7c0-0.9,0-1.8,0-2.4h-0.1l-6.5,8.4h-0.6l-6.5-8.4h-0.1c0,0.6,0.1,1.4,0.1,2.3v7H221v-12.1h3.1
			l6.3,8.3l0,0l6.3-8.3h3v12.1L237.3,121.8L237.3,121.8z"/>
		<path class="st0" d="M270.1,121.9c-2.7,0-3.8-0.5-3.8-3.4v-5.6c0-2.8,1.1-3.4,3.8-3.4h9.5c2.7,0,3.8,0.6,3.8,3.4v5.6
			c0,2.8-1,3.4-3.8,3.4H270.1z M280.8,112.5c0-0.8-0.3-0.9-1.1-0.9h-9.6c-0.9,0-1.1,0.1-1.1,0.9v6.5c0,0.8,0.3,0.9,1.1,0.9h9.6
			c0.9,0,1.1-0.1,1.1-0.9V112.5z"/>
		<path class="st0" d="M325.3,119c0,2.2-1.2,2.8-3.6,2.8h-11.8v-12.1h11.7c2.7,0,3.6,0.6,3.6,2.8v1c0,0.9-0.2,1.7-1.3,1.9l0,0
			c1,0.2,1.5,0.9,1.5,2v1.6H325.3z M322.7,112.6c0-0.8-0.3-0.9-1.2-0.9h-9.2v3.1h9.3c0.8,0,1.1-0.2,1.1-0.9L322.7,112.6L322.7,112.6
			z M322.7,117.4c0-0.8-0.3-0.9-1.2-0.9h-9.2v3.3h9.2c0.9,0,1.2-0.1,1.2-0.9V117.4z"/>
		<path class="st0" d="M352,121.8v-12.1h2.6v12.1H352z"/>
		<path class="st0" d="M381.8,121.8v-12.1h2.6v10h11.9v2.1H381.8z"/>
		<path class="st0" d="M421.8,121.8v-12.1h2.6v12.1H421.8z"/>
	</g>
		<g>
		<path class="st0" d="M417.3,45.4c-9.2,0-16.8,1-22.2,4.8c-5,3.6-7.8,8.7-7.8,14.4c0,11.2,10.9,19.2,24.2,19.2h9.6
			c0.4,0,0.8-0.1,1.1-0.3l3.1-2.1c0.1-0.1,0.1-0.2,0.1-0.3c0-0.1-0.1-0.2-0.2-0.2c-12.3-0.2-22.4-5.8-22.4-15.1
			c0-9.5,8.9-15.7,22.7-15.7h34.7c0.5,0,1-0.2,1.4-0.6l4.3-4.3h-48.6V45.4z"/>
			<path class="st0" d="M309.7,46l-20.6,20.6h8.3c0.5,0,1-0.2,1.4-0.6l15.1-15.1c0.5-0.5,1.4-0.5,1.9,0l32.4,32.4
			c0.4,0.4,0.9,0.6,1.4,0.6H367L329.1,46c-0.4-0.4-0.8-0.6-1.4-0.6H311C310.5,45.4,310,45.6,309.7,46"/>
			<path class="st0" d="M241.6,45.8l-28.7,21.7c-0.5,0.4-1.1,0.4-1.6,0l-28.8-21.7c-0.3-0.3-0.7-0.4-1.2-0.4h-20.8l45.4,34.2
			c0.5,0.4,1.1,0.4,1.6,0l34.4-25.9c0.4-0.3,0.9,0,0.9,0.5v29.7h15.5V45.4h-15.5C242.4,45.4,242,45.5,241.6,45.8"/>
			<path class="st0" d="M118.2,83.9h15.5V45.4h-15.5V83.9z"/>
			<path class="st0" d="M43.4,63.6c-0.7,0-1,0.8-0.5,1.3l18.4,18.4c0.4,0.4,0.9,0.6,1.4,0.6h17.5L65.3,69.1c-0.3-0.3-0.1-0.9,0.3-1
			l6.3-0.5c10.7-1.1,15.7-5.5,15.7-11.6c0-7.3-6.8-10.6-20.6-10.6H1.6l4.8,4.3c0.4,0.4,0.8,0.6,1.4,0.6h50.7
			c10.3,0,13.7,2.4,13.7,6.7c0,4-4.8,6.3-15,6.4C44.5,63.6,43.4,63.6,43.4,63.6z"/>
	</g>
</g>
</svg>
