<?xml version="1.0" encoding="utf-8"?>
<!-- Generator: Adobe Illustrator 23.0.2, SVG Export Plug-In . SVG Version: 6.00 Build 0)  -->
<svg version="1.1" id="Layer_1" xmlns="http://www.w3.org/2000/svg" xmlns:xlink="http://www.w3.org/1999/xlink" x="0px" y="0px"
	 viewBox="0 0 120 147.6" style="enable-background:new 0 0 120 147.6;" xml:space="preserve">
<path d="M117.9,8.1C99.5,3,79.6-0.1,60,0C40.4-0.1,20.5,3,2.1,8.1C0.9,8.5,0,9.6,0,10.9c0,48.9,18.3,109.5,58.3,136.2
	c1,0.7,2.3,0.7,3.3,0c40-26.7,58.4-87.2,58.3-136.2C120,9.6,119.1,8.5,117.9,8.1z M84,104.9c-6.3,10.6-13.8,20.1-22.7,27.4
	c-0.7,0.6-1.8,0.6-2.5,0c-24.4-20.1-38.6-55.6-44-89.9l-6.2-3.3h5.7l0,0h40.3c14.8,0,16.7,4.8,16.7,8.3c0,3.5-1.9,8.3-16.7,8.3H41.1
	c-0.5,0-0.8,0.4-0.8,0.8c0,0.2,0.1,0.4,0.3,0.6l45.1,45.1l0,0l4.8,4.8L84,104.9z M92.2,88.6L65.3,61.7c-0.4-0.4-0.1-1,0.4-1.1L71,60
	c11.1-1.2,17.5-6.8,17.5-13.8c0-8.1-8.6-12.6-22.9-12.6H13.5c-0.6-4.5-0.9-8.9-1.1-13.3c-0.1-1.5,0.9-2.7,2.3-3
	c14.9-3.5,30.3-5.3,44.9-5.3h0.8c14.7,0,30,1.8,44.9,5.3c1.4,0.3,2.4,1.6,2.3,3C106.5,42.6,101.5,67,92.2,88.6z"/>
</svg>
